<svg width="682" height="682" viewBox="0 0 682 682" fill="none" xmlns="http://www.w3.org/2000/svg">
<path d="M522.503 335.158V337.158V349.002V350.457V442.209L438.39 489.471L433.047 492.472L426.614 496.087L421.772 498.815L346.979 540.849V456.326V443.55V348.32L435.571 298.875L447.756 292.078L522.503 250.362V335.158Z" fill="#FB7D2D"/>
<path d="M257.159 496.701L249.703 492.495L245.861 490.335L160.588 442.209V350.298V348.388V337.294V333.907V250.362L235.381 292.282L247.498 299.057L335.408 348.32V443.982V456.758V540.849L261.32 499.042L257.159 496.701Z" fill="#FB7D2D"/>
<path d="M438.185 283.871L426.659 290.327L341.409 338.204L257.137 290.987L245.656 284.553L163.976 238.791L245.656 193.12L247.839 191.869L257.137 186.686L260.16 184.981L341.546 139.469L423.045 185.231L426.5 187.186L435.639 192.301L438.185 193.733L518.411 238.791L438.185 283.871Z" fill="#FB7D2D"/>
<path d="M228.334 89.683L341.296 25.4386L455.917 90.0013H426.364L426.477 173.887L341.546 125.874L257.137 173.592V89.8421L228.334 89.683Z" fill="#6A6A6A"/>
<g opacity="0.5">
<path d="M78.1117 290.737L64.5399 314.266V182.844L179.23 117.918L164.294 143.925L236.404 185.299L149.017 234.722V330.77L78.1117 290.737Z" fill="#FB7D2D"/>
</g>
<path d="M167.249 539.144L182.64 564.469L64.5399 497.36V368.848L79.6121 394.355L149.017 354.958V449.006L237.813 499.201L167.249 539.144Z" fill="#6A6A6A"/>
<g opacity="0.5">
<path d="M454.098 592.09L341.432 655.879L231.039 591.862L257.046 592.09L257.137 510.136L341.546 557.853L426.636 509.749L426.727 591.862L454.098 592.09Z" fill="#FB7D2D"/>
</g>
<path d="M603.274 395.56L616.983 372.167L617.142 498.724L502.816 564.309L517.001 540.189L445.096 499.315L534.074 449.006V355.663L603.274 395.56Z" fill="#6A6A6A"/>
<g opacity="0.5">
<path d="M534.074 330.565V234.722L447.324 185.663L520.389 144.152L506.135 118.577L617.21 182.617V311.333L605.23 289.85L534.074 330.565Z" fill="#FB7D2D"/>
</g>
</svg>
